<svg xmlns="http://www.w3.org/2000/svg" viewBox="0 0 100 100" width="100" height="100" role="img"><title>Decorative motif</title>
    <circle cx="50" cy="50" r="44" fill="none" stroke="#fff3d8" stroke-width="2.6"/>
    <circle cx="50" cy="50" r="35" fill="none" stroke="#fff3d8" stroke-width="1.8"/>
    <circle cx="50" cy="50" r="4.5" fill="none" stroke="#fff3d8" stroke-width="1.8"/>
    <path d="M56.0 52.5 L81.4 63.0 A34 34 0 0 1 74.0 74.0 L54.6 54.6" fill="none" stroke="#fff3d8" stroke-width="1.6" stroke-linejoin="round"/><path d="M52.5 56.0 L63.0 81.4 A34 34 0 0 1 50.0 84.0 L50.0 56.5" fill="none" stroke="#fff3d8" stroke-width="1.6" stroke-linejoin="round"/><path d="M47.5 56.0 L37.0 81.4 A34 34 0 0 1 26.0 74.0 L45.4 54.6" fill="none" stroke="#fff3d8" stroke-width="1.6" stroke-linejoin="round"/><path d="M44.0 52.5 L18.6 63.0 A34 34 0 0 1 16.0 50.0 L43.5 50.0" fill="none" stroke="#fff3d8" stroke-width="1.6" stroke-linejoin="round"/><path d="M44.0 47.5 L18.6 37.0 A34 34 0 0 1 26.0 26.0 L45.4 45.4" fill="none" stroke="#fff3d8" stroke-width="1.6" stroke-linejoin="round"/><path d="M47.5 44.0 L37.0 18.6 A34 34 0 0 1 50.0 16.0 L50.0 43.5" fill="none" stroke="#fff3d8" stroke-width="1.6" stroke-linejoin="round"/><path d="M52.5 44.0 L63.0 18.6 A34 34 0 0 1 74.0 26.0 L54.6 45.4" fill="none" stroke="#fff3d8" stroke-width="1.6" stroke-linejoin="round"/><path d="M56.0 47.5 L81.4 37.0 A34 34 0 0 1 84.0 50.0 L56.5 50.0" fill="none" stroke="#fff3d8" stroke-width="1.6" stroke-linejoin="round"/></svg>