<svg xmlns="http://www.w3.org/2000/svg" viewBox="0 0 900 1100" width="900" height="1100" role="img">
    <title>03 — THE ONE MORE</title>
    <rect width="900" height="1100" fill="#fbe5a6"/>
    <circle cx="622" cy="463" r="131" fill="#f04a24" opacity=".9"/>
    <circle cx="622" cy="463" r="177" fill="none" stroke="#f04a24" stroke-width="3" opacity=".55"/>
    <rect x="0" y="503" width="900" height="597" fill="#731f17" opacity=".08"/>
    <path d="M0 503h900" stroke="#731f17" stroke-width="3" opacity=".35"/>
    <rect x="258" y="543" width="582" height="41" rx="14" fill="#731f17" opacity="0.16"/><rect x="414" y="631" width="453" height="41" rx="14" fill="#731f17" opacity="0.07"/><rect x="40" y="719" width="770" height="24" rx="14" fill="#731f17" opacity="0.12"/><rect x="9" y="807" width="679" height="37" rx="14" fill="#731f17" opacity="0.08"/><rect x="54" y="895" width="610" height="18" rx="14" fill="#731f17" opacity="0.11"/><rect x="399" y="983" width="421" height="27" rx="14" fill="#731f17" opacity="0.14"/><rect x="357" y="1071" width="374" height="20" rx="14" fill="#731f17" opacity="0.10"/><circle cx="819" cy="426" r="6" fill="#731f17" opacity="0.12"/><circle cx="804" cy="150" r="11" fill="#731f17" opacity="0.10"/><circle cx="91" cy="97" r="9" fill="#731f17" opacity="0.07"/><circle cx="464" cy="792" r="7" fill="#731f17" opacity="0.12"/><circle cx="544" cy="245" r="8" fill="#731f17" opacity="0.13"/><circle cx="177" cy="458" r="6" fill="#731f17" opacity="0.07"/><circle cx="359" cy="987" r="6" fill="#731f17" opacity="0.07"/><circle cx="319" cy="389" r="12" fill="#731f17" opacity="0.10"/><circle cx="738" cy="294" r="6" fill="#731f17" opacity="0.06"/><circle cx="775" cy="487" r="3" fill="#731f17" opacity="0.10"/><circle cx="135" cy="85" r="4" fill="#731f17" opacity="0.06"/><circle cx="593" cy="350" r="6" fill="#731f17" opacity="0.11"/><circle cx="676" cy="565" r="6" fill="#731f17" opacity="0.05"/><circle cx="838" cy="665" r="11" fill="#731f17" opacity="0.12"/><circle cx="701" cy="410" r="7" fill="#731f17" opacity="0.08"/><circle cx="753" cy="532" r="8" fill="#731f17" opacity="0.05"/><circle cx="401" cy="591" r="11" fill="#731f17" opacity="0.11"/><circle cx="734" cy="638" r="4" fill="#731f17" opacity="0.13"/><circle cx="763" cy="845" r="6" fill="#731f17" opacity="0.07"/><circle cx="399" cy="176" r="9" fill="#731f17" opacity="0.07"/><circle cx="328" cy="890" r="10" fill="#731f17" opacity="0.08"/><circle cx="772" cy="706" r="4" fill="#731f17" opacity="0.12"/><circle cx="548" cy="880" r="8" fill="#731f17" opacity="0.11"/><circle cx="672" cy="456" r="5" fill="#731f17" opacity="0.10"/><circle cx="853" cy="8" r="7" fill="#731f17" opacity="0.10"/><circle cx="803" cy="1074" r="10" fill="#731f17" opacity="0.08"/>
    <g opacity=".22" transform="translate(650 70) scale(1.7)">
    <circle cx="50" cy="50" r="44" fill="none" stroke="#731f17" stroke-width="2.6"/>
    <circle cx="50" cy="50" r="35" fill="none" stroke="#731f17" stroke-width="1.8"/>
    <circle cx="50" cy="50" r="4.5" fill="none" stroke="#731f17" stroke-width="1.8"/>
    <path d="M56.0 52.5 L81.4 63.0 A34 34 0 0 1 74.0 74.0 L54.6 54.6" fill="none" stroke="#731f17" stroke-width="1.6" stroke-linejoin="round"/><path d="M52.5 56.0 L63.0 81.4 A34 34 0 0 1 50.0 84.0 L50.0 56.5" fill="none" stroke="#731f17" stroke-width="1.6" stroke-linejoin="round"/><path d="M47.5 56.0 L37.0 81.4 A34 34 0 0 1 26.0 74.0 L45.4 54.6" fill="none" stroke="#731f17" stroke-width="1.6" stroke-linejoin="round"/><path d="M44.0 52.5 L18.6 63.0 A34 34 0 0 1 16.0 50.0 L43.5 50.0" fill="none" stroke="#731f17" stroke-width="1.6" stroke-linejoin="round"/><path d="M44.0 47.5 L18.6 37.0 A34 34 0 0 1 26.0 26.0 L45.4 45.4" fill="none" stroke="#731f17" stroke-width="1.6" stroke-linejoin="round"/><path d="M47.5 44.0 L37.0 18.6 A34 34 0 0 1 50.0 16.0 L50.0 43.5" fill="none" stroke="#731f17" stroke-width="1.6" stroke-linejoin="round"/><path d="M52.5 44.0 L63.0 18.6 A34 34 0 0 1 74.0 26.0 L54.6 45.4" fill="none" stroke="#731f17" stroke-width="1.6" stroke-linejoin="round"/><path d="M56.0 47.5 L81.4 37.0 A34 34 0 0 1 84.0 50.0 L56.5 50.0" fill="none" stroke="#731f17" stroke-width="1.6" stroke-linejoin="round"/></g>
    <text x="52" y="1046" font-family="'Helvetica Neue',Helvetica,Arial,sans-serif" font-size="26" letter-spacing="7"
      fill="#731f17" opacity=".55">03 — THE ONE MORE</text></svg>